
<svg width="40" height="40" viewBox="0 0 40 40" fill="none" xmlns="http://www.w3.org/2000/svg">
  <circle cx="20" cy="20" r="20" fill="#f7cdd5" fill-opacity="0.2"/>
  <path d="M28 12.7C28 14.5 26.8 16 25 16C23.2 16 22 14.5 22 12.7C22 10.9 23.2 10 25 10C26.8 10 28 10.9 28 12.7Z" fill="#f7cdd5"/>
  <path d="M18 12.7C18 14.5 16.8 16 15 16C13.2 16 12 14.5 12 12.7C12 10.9 13.2 10 15 10C16.8 10 18 10.9 18 12.7Z" fill="#f7cdd5"/>
  <path fill-rule="evenodd" clip-rule="evenodd" d="M25 16C23.064 16 22 14.5255 22 12.7C22 10.8745 23.064 10 25 10C26.936 10 28 10.8745 28 12.7C28 14.5255 26.936 16 25 16ZM15 16C13.064 16 12 14.5255 12 12.7C12 10.8745 13.064 10 15 10C16.936 10 18 10.8745 18 12.7C18 14.5255 16.936 16 15 16Z" fill="#f7cdd5"/>
  <path fill-rule="evenodd" clip-rule="evenodd" d="M20 30C20 30 28 20 28 14C28 14 25 16.5 20 16.5C15 16.5 12 14 12 14C12 20 20 30 20 30Z" fill="#f7cdd5"/>
  <path d="M20 22.5C20 22.5 20.5 22 21 22C21.5 22 22 22.5 22 22.5C22 22.5 21.5 23.5 21 23.5C20.5 23.5 20 22.5 20 22.5Z" fill="#FFF"/>
  <path d="M18 20C18 20 18.5 19.5 19 19.5C19.5 19.5 20 20 20 20C20 20 19.5 21 19 21C18.5 21 18 20 18 20Z" fill="#FFF"/>
  <path d="M22 19C22 19 22.5 18.5 23 18.5C23.5 18.5 24 19 24 19C24 19 23.5 20 23 20C22.5 20 22 19 22 19Z" fill="#FFF"/>
</svg>
